# xmcd
#
# Track frame offsets:
#	150
#	18224
#	36257
#	53263
#	67483
#	84436
#	100532
#	117696
#	132505
#	147485
#	161658
#	179418
#	195600
#	213923
#	229396
#	245818
#
# Disc length: 3476 seconds
#
# Revision: 6
# Processed by: cddbd v1.5.1PL0 Copyright (c) Steve Scherf et al.
# Submitted via: audiograbber 1.83.01
#
DISCID=ec0d9210
DTITLE=Rex Gildo - Schlager Gold  -  Was ist schon eine Nacht
DYEAR=2004
DGENRE=Schlager
TTITLE0=Was ist schon eine Nacht
TTITLE1=Torero
TTITLE2=Bist du einsam heut' Nacht
TTITLE3=Eine Nacht in Venedig
TTITLE4=Tränen sollst du niemals weinen
TTITLE5=Du vergisst die Einsamkeit
TTITLE6=Enya
TTITLE7=Sehnsucht ist mehr
TTITLE8=Und wenn ich träume
TTITLE9=Erinnerung an deine Zärtlichkeit
TTITLE10=Für mich, wirst du ein neuer Anfang sein
TTITLE11=Spuren, die der Wind verweht
TTITLE12=Goodbye Maria
TTITLE13=Nur ein Wort von dir
TTITLE14=Sommermelodie
TTITLE15=Mexikanische Nacht
EXTD=
EXTT0=
EXTT1=
EXTT2=
EXTT3=
EXTT4=
EXTT5=
EXTT6=
EXTT7=
EXTT8=
EXTT9=
EXTT10=
EXTT11=
EXTT12=
EXTT13=
EXTT14=
EXTT15=
PLAYORDER=
